<?xml version="1.0" encoding="utf-8"?>
<!-- Generator: Adobe Illustrator 22.1.0, SVG Export Plug-In . SVG Version: 6.00 Build 0)  -->
<svg version="1.1" id="Layer_1" xmlns="http://www.w3.org/2000/svg" xmlns:xlink="http://www.w3.org/1999/xlink" x="0px" y="0px"
	 viewBox="0 0 125.1 101.4" style="enable-background:new 0 0 125.1 101.4;" xml:space="preserve">
<style type="text/css">
	.st0{fill:#626366;}
	.st1{fill:#D57827;}
</style>
<title>PNNL_ABBREV_GREY</title>
<polygon class="st0" points="95.2,72.2 95.2,101.4 118.2,101.4 118.2,95.6 101.2,95.6 101.2,72.2 "/>
<polygon class="st0" points="82.9,91.7 67.9,72.2 61.7,72.2 61.7,101.4 67.7,101.4 67.7,81.2 83.4,101.4 88.9,101.4 88.9,72.2 
	82.9,72.2 "/>
<polygon class="st0" points="49.5,91.7 34.5,72.2 28.2,72.2 28.2,101.4 34.2,101.4 34.2,81.2 50,101.4 55.5,101.4 55.5,72.2 
	49.5,72.2 "/>
<path class="st0" d="M0,72.2v29.1h6.3V90.5h5.1c4.4,0,12.6,0,12.6-9.1s-8.2-9.2-12.6-9.2H0z M17.6,81.4c0,2.9-1.7,3.4-5.1,3.4H6.3
	V78h6.2C16,78,17.6,78.5,17.6,81.4L17.6,81.4z"/>
<path class="st1" d="M125.3-0.3c-0.1-0.6-21.3,6.5-41.7,19.1c-6.8,2-13.5,4.5-19.9,7.5c-1.4,0.6-2.8,1.3-4.2,2
	c-2.8,0.3-5.8,0.7-8.7,1.2c-5.1,0.8-10.1,2-15,3.5c-6-1.2-12.2-2-18.3-2.3c-4.6-3.3-9.4-6.2-14.4-8.8c-1-0.3-2.1,0.3-2.4,1.4
	C0,24.5,0.2,25.6,0.9,26c3,1.4,5.9,2.9,8.7,4.6c-1.3,0-2,0-2.1,0.1c-0.9,0-1.5,0.7-1.5,1.6c0,0,0,0,0,0.1c0.1,0.9,0.8,1.5,1.6,1.5
	c0.2,0,2.8-0.2,6.9-0.2c2.1,1.3,4.3,2.8,6.6,4.5c-0.8,0.3-1.7,0.7-2.5,1.2c-0.8,0.3-1.3,1.2-1,2c0.5,0.7,1.4,0.9,2.2,0.5
	c0.1-0.1,1.5-0.8,3.8-1.7c0.8,0.6,1.5,1.2,2.3,1.8c1.7,1.3,3.3,2.7,4.9,4.1c-1.5,1.1-2.3,1.8-2.4,1.9c-0.9,0.6-1.1,1.8-0.5,2.7
	c0.8,0.7,2,0.7,2.8-0.1c0.1-0.1,1-0.9,2.7-2.2c2.2,2.1,4.2,4.2,6,6.1c-0.6,0.6-1.1,1.1-1.6,1.8c-1.1,1.2-1.1,2.8-0.2,3.6
	c1.2,0.7,2.7,0.5,3.5-0.6c0.4-0.5,0.8-1,1.2-1.4c2.7,3,4.3,5,4.5,4.9s-1-2.5-3.5-6c2.8-3,8.1-8.4,14.9-14.5c3.6,1.5,5.8,2.7,5.9,2.6
	s-1.8-1.6-5-3.4c4.5-4,9.7-8.3,15.2-12.4c5.3-0.1,8.8,0,8.8-0.1s-2.9-0.6-7.5-0.8c1.5-1.1,3.1-2.2,4.7-3.3c2.9-2.1,5.9-4.1,8.8-5.9
	c7.5-2.4,12.8-3.6,12.7-3.8s-3.5,0.2-8.9,1.4C110,6.2,125.5,0.1,125.3-0.3z M51.1,31.5c1.2-0.2,2.3-0.5,3.5-0.7
	c-3,1.6-5.9,3.2-8.5,4.9c-1.8-0.6-3.7-1.1-5.6-1.6C43.8,33.1,47.5,32.2,51.1,31.5z M24.9,36.6c-1.2-1-2.3-1.9-3.5-2.8
	c2.9,0.2,6,0.4,9.2,0.8C28.5,35.3,26.6,36,24.9,36.6z M33.2,44.3c-1.6-1.6-3.3-3.3-5.1-4.8l-0.9-0.8c2.5-1,5.5-2.1,8.9-3.2l0.8,0.2
	c2.4,0.4,4.7,0.8,7,1.4C39.5,39.7,35.9,42.3,33.2,44.3z M40.8,53c-1.5-2-3.3-4.1-5.3-6.2c3-2.3,7.2-5.3,12.3-8.6
	c2.3,0.7,4.5,1.5,6.4,2.2C48.3,45.5,43.6,50.1,40.8,53L40.8,53z M55.3,39.4c-1.7-0.8-3.7-1.7-5.7-2.5c3.9-2.5,8.3-5,12.8-7.3
	c2-0.2,3.9-0.4,5.7-0.5C63.5,32.6,59.2,36.1,55.3,39.4z M70,27.8c-1.3,0-2.6,0-4,0.1c3.7-1.9,7.4-3.5,11-4.9
	C74.6,24.6,72.3,26.2,70,27.8z"/>
</svg>
